<svg width="295" height="279" viewBox="0 0 295 279" fill="none" xmlns="http://www.w3.org/2000/svg">
<ellipse cx="145.964" cy="137.433" rx="145.964" ry="137.433" transform="matrix(1 -0.000575214 -0.000517609 1 1.4209 1.67664)" fill="#0E64A5"/>
<path d="M213.054 107.036C213.007 198.191 187.696 198.206 144.021 198.231C100.345 198.256 73.3522 198.271 73.3994 107.117" stroke="#012C4D" stroke-width="12"/>
<rect width="97.59" height="135.563" rx="33" transform="matrix(1 -0.000575214 -0.000517609 1 94.4624 48.2048)" fill="#012C4D"/>
<rect width="48.795" height="12.154" transform="matrix(1 -0.000575214 -0.000517609 1 143.233 94.9226)" fill="white"/>
<rect width="48.795" height="12.154" transform="matrix(1 -0.000575214 -0.000517609 1 143.222 116.426)" fill="#FFF7F7"/>
<rect width="48.795" height="12.154" transform="matrix(1 -0.000575214 -0.000517609 1 143.211 137.929)" fill="#FFFDFD"/>
<rect width="11.7781" height="33.6571" transform="matrix(1 -0.000575214 -0.000517609 1 138.132 197.767)" fill="#012C4D"/>
</svg>
