<svg width="291" height="278" viewBox="0 0 291 278" fill="none" xmlns="http://www.w3.org/2000/svg">
<ellipse cx="144.034" cy="137.433" rx="144.034" ry="137.433" transform="matrix(1 0 -0.00109282 0.999999 1.42065 1.48865)" fill="#74F97F"/>
<path d="M196.28 166.615C196.235 235.744 177.631 235.758 145.53 235.782C113.428 235.806 93.5883 235.821 93.634 166.693" stroke="#012C4D" stroke-width="12"/>
<rect width="71.7287" height="102.807" rx="33" transform="matrix(1 -0.000757823 -0.00066092 1 109.123 122.014)" fill="#012C4D"/>
<rect width="35.8643" height="9.21716" transform="matrix(1 -0.000757823 -0.00066092 1 144.963 157.437)" fill="white"/>
<rect width="35.8643" height="9.21716" transform="matrix(1 -0.000757823 -0.00066092 1 144.952 173.744)" fill="#FFF7F7"/>
<rect width="35.8643" height="9.21716" transform="matrix(1 -0.000757823 -0.00066092 1 144.942 190.051)" fill="#FFFDFD"/>
<rect width="8.65691" height="25.5244" transform="matrix(1 -0.000757823 -0.00066092 1 141.202 235.431)" fill="#012C4D"/>
<path d="M209 80.2894C209 96.6984 184.052 110 148.81 110C113.569 110 84.9998 96.6984 84.9998 80.2894C85.0002 44 111.258 102 146.5 102C181.741 102 209 47.0411 209 80.2894Z" fill="#EAFFED"/>
<path d="M189.227 59.3982C189.194 69.8915 172.217 87.3461 147.64 87.2695C123.064 87.1928 105.065 66.321 105.098 55.8276C110.598 36.8281 123.064 76.7505 147.64 76.8271C172.217 76.9038 189.322 28.8973 189.227 59.3982Z" fill="#EAFFED"/>
<path d="M171.001 43.9541C171.001 53.0668 160.256 61.4546 147.001 61.4546C133.746 61.4546 123 53.0666 123 43.9539C123 23.9542 133.746 53.4545 147.001 53.4545C160.256 53.4545 167.501 26.4546 171.001 43.9541Z" fill="#EAFFED"/>
<path d="M156.5 26.5004C156.5 32.2994 159.5 38 149 38C143.201 38 133.5 35.7989 133.5 29.9999C136.5 22 137.201 13.4999 143 13.4999C148.799 13.4999 156.5 18.5 156.5 26.5004Z" fill="#EAFFED"/>
</svg>
