<svg width="296" height="279" viewBox="0 0 296 279" fill="none" xmlns="http://www.w3.org/2000/svg">
<ellipse cx="145.964" cy="137.433" rx="145.964" ry="137.433" transform="matrix(1 -0.000575214 -0.000517609 1 2.14258 2.16785)" fill="#0E64A5"/>
<path d="M213.776 117.528C213.729 208.682 188.418 208.697 144.743 208.722C101.067 208.747 74.0739 208.763 74.1211 117.608" stroke="#012C4D" stroke-width="12"/>
<rect width="97.59" height="135.563" rx="33" transform="matrix(1 -0.000575214 -0.000517609 1 95.1841 58.6962)" fill="#D60000"/>
<rect width="48.795" height="12.154" transform="matrix(1 -0.000575214 -0.000517609 1 143.955 105.414)" fill="white"/>
<rect width="48.795" height="12.154" transform="matrix(1 -0.000575214 -0.000517609 1 143.944 126.917)" fill="#FFF7F7"/>
<rect width="48.795" height="12.154" transform="matrix(1 -0.000575214 -0.000517609 1 143.933 148.42)" fill="#FFFDFD"/>
<rect width="11.7781" height="33.6571" transform="matrix(1 -0.000575214 -0.000517609 1 138.854 208.258)" fill="#012C4D"/>
</svg>
